<svg xmlns="http://www.w3.org/2000/svg" viewBox="0 0 120 120" role="img" aria-labelledby="title desc">
  <title>Ved Industries Placeholder Logo</title>
  <desc>Placeholder logo circle with V mark. Replace with official Ved Industries artwork.</desc>
  <defs>
    <linearGradient id="g" x1="0" x2="1" y1="0" y2="1">
      <stop offset="0%" stop-color="#0ea5e9" />
      <stop offset="100%" stop-color="#6366f1" />
    </linearGradient>
  </defs>
  <circle cx="60" cy="60" r="56" fill="#0b1224" />
  <circle cx="60" cy="60" r="52" fill="url(#g)" opacity="0.15" />
  <path d="M25 64c12-2 18-14 26-29 8 18 15 30 26 32 5 1 9 0 13-2l-5 15c-4 3-9 5-16 5-10 0-18-5-25-15-6 8-13 12-23 12l4-18z" fill="#0ea5e9" opacity="0.85" />
  <path d="M40 76c10-6 17-17 24-32l9 7c-7 13-14 22-26 27l-7-2z" fill="#f59e0b" opacity="0.9" />
  <circle cx="60" cy="60" r="52" stroke="#e5e7eb" stroke-width="2" fill="none" />
  <text x="60" y="92" fill="#e5e7eb" font-family="'Segoe UI', Arial, sans-serif" font-size="12" text-anchor="middle" letter-spacing="1">
    VED INDUSTRIES
  </text>
</svg>
